<?xml version="1.0" encoding="UTF-8"?>
<!-- Uploaded to: SVG Find, www.svgrepo.com, Generator: SVG Find Mixer Tools -->
<svg fill="#000000" width="800px" height="800px" version="1.1" viewBox="144 144 512 512" xmlns="http://www.w3.org/2000/svg">
 <g>
  <path d="m349.86 331.67h-9.3711v9.2109h-38.809l25.035-53.449z"/>
  <path d="m417.16 235.71v95.957h-49.594l-41.645-79.742v-16.215z"/>
  <path d="m340.48 356.62v69.352h-113.67v-190.27h99.109v16.215l-62.344 133.12 14.246 6.6914 16.453-35.109z"/>
  <path d="m382.37 373.47v190.82l190.82 0.003906v-190.82zm61.398 148.62-9.2891-12.754c13.145-9.6836 17.004-46.68 16.531-72.188h-21.727v-15.742h40.621v-22.434h15.742v22.434h41.801v15.742h-60.695c0.31641 20.234-1.2578 68.961-22.984 84.941zm91.473-56.68c-0.70703 4.0938-4.9609 27.316-15.664 46.207 6.1406 5.7461 11.652 9.5234 14.879 9.5234v15.742c-7.6367 0-16.137-5.3516-24.09-12.359-5.9023 6.457-13.148 11.098-21.805 12.281l-1.9688-15.582c4.6445-0.62891 8.8945-3.543 12.676-7.793v-0.078125c-6.2188-6.7695-11.18-13.305-13.777-16.848l12.754-9.2891c3.0703 4.1719 6.375 8.3438 9.8398 12.359 4.4102-9.1328 7.6367-19.523 9.6836-27.629h-35.66v-15.742h54.633z"/>
 </g>
</svg>